<svg width="44" height="44" viewBox="0 0 44 44" fill="none" xmlns="http://www.w3.org/2000/svg">
<g id="ri:facebook-line">
<circle id="Ellipse 1" cx="22.8561" cy="21.1412" r="0.449821" fill="#FBFBFB"/>
<path id="Vector" d="M23.3065 19.1916H28.7044L28.1046 21.5906H23.3065V32.3863H20.9075V21.5906H16.1094V19.1916H20.9075V16.9461C20.9075 14.8073 21.1306 14.0312 21.548 13.2491C21.9571 12.4764 22.589 11.8445 23.3617 11.4355C24.1438 11.018 24.9199 10.7949 27.0586 10.7949C27.6848 10.7949 28.2341 10.8549 28.7044 10.9749V13.194H27.0586C25.4704 13.194 24.987 13.2875 24.4928 13.5514C24.1381 13.7368 23.8488 14.0265 23.664 14.3815C23.4001 14.8745 23.3065 15.3579 23.3065 16.9461V19.1916Z" fill="#FBFBFB"/>
</g>
</svg>
