<svg width="44" height="44" viewBox="0 0 44 44" fill="none" xmlns="http://www.w3.org/2000/svg">
<g id="formkit:instagram">
<circle id="Ellipse 1" cx="22.317" cy="21.1412" r="0.449821" fill="#FBFBFB"/>
<path id="Vector" d="M21.866 17.9972C19.8765 17.9972 18.2726 19.6166 18.2726 21.5906C18.2726 23.5647 19.8919 25.184 21.866 25.184C23.8401 25.184 25.4594 23.5647 25.4594 21.5906C25.4594 19.6166 23.8401 17.9972 21.866 17.9972ZM32.6617 21.5906C32.6617 20.0946 32.6617 18.6295 32.5846 17.1335C32.5075 15.4062 32.1065 13.864 30.8419 12.6148C29.5772 11.3501 28.0504 10.9491 26.3231 10.872C24.8271 10.7949 23.362 10.7949 21.866 10.7949C20.37 10.7949 18.9049 10.7949 17.4089 10.872C15.6816 10.9491 14.1394 11.3501 12.8902 12.6148C11.6255 13.8794 11.2245 15.4062 11.1474 17.1335C11.0703 18.6295 11.0703 20.0946 11.0703 21.5906C11.0703 23.0866 11.0703 24.5517 11.1474 26.0477C11.2245 27.775 11.6255 29.3173 12.8902 30.5665C14.1548 31.8311 15.6816 32.2321 17.4089 32.3092C18.9049 32.3863 20.37 32.3863 21.866 32.3863C23.362 32.3863 24.8271 32.3863 26.3231 32.3092C28.0504 32.2321 29.5926 31.8311 30.8419 30.5665C32.1065 29.3018 32.5075 27.775 32.5846 26.0477C32.6771 24.5672 32.6617 23.0866 32.6617 21.5906ZM21.866 27.1273C18.7969 27.1273 16.3294 24.6597 16.3294 21.5906C16.3294 18.5216 18.7969 16.054 21.866 16.054C24.9351 16.054 27.4027 18.5216 27.4027 21.5906C27.4027 24.6597 24.9351 27.1273 21.866 27.1273ZM27.634 17.1181C26.9246 17.1181 26.3385 16.5475 26.3385 15.8226C26.3385 15.0978 26.9091 14.5271 27.634 14.5271C28.3589 14.5271 28.9295 15.0978 28.9295 15.8226C28.9334 15.9916 28.9025 16.1595 28.8389 16.316C28.7752 16.4725 28.6801 16.6143 28.5593 16.7326C28.4411 16.8533 28.2993 16.9484 28.1428 17.0121C27.9863 17.0758 27.8184 17.1066 27.6494 17.1027L27.634 17.1181Z" fill="#FBFBFB"/>
</g>
</svg>
