<svg width="44" height="44" viewBox="0 0 44 44" fill="none" xmlns="http://www.w3.org/2000/svg">
<g id="entypo-social:twitter">
<circle id="Ellipse 1" cx="22.5826" cy="21.1412" r="0.449821" fill="#FBFBFB"/>
<path id="Vector" d="M32.4905 16.1697C32.5021 16.4036 32.5064 16.6404 32.5064 16.8744C32.5064 24.0802 27.0233 32.3863 16.9973 32.3863C13.9172 32.3863 11.0536 31.4838 8.64062 29.9358C10.0679 30.1084 11.5152 29.998 12.8998 29.611C14.2843 29.2239 15.5791 28.5678 16.71 27.6802C15.5727 27.6587 14.4705 27.2823 13.5576 26.6037C12.6447 25.9251 11.9666 24.9782 11.6182 23.8953C12.4357 24.0482 13.2769 24.0161 14.0803 23.8015C12.8466 23.5513 11.7372 22.8822 10.9403 21.9077C10.1434 20.9331 9.70798 19.713 9.70778 18.4542V18.3863C10.4647 18.8074 11.3113 19.0415 12.1771 19.0693C11.0217 18.299 10.2038 17.1168 9.89033 15.764C9.57688 14.4112 9.79153 12.9898 10.4904 11.7899C11.8591 13.4743 13.5668 14.852 15.5026 15.8334C17.4383 16.8149 19.5589 17.3781 21.7266 17.4866C21.6328 17.0789 21.5858 16.6617 21.5865 16.2433C21.5865 15.5277 21.7275 14.8191 22.0014 14.158C22.2753 13.4969 22.6767 12.8962 23.1828 12.3902C23.6889 11.8843 24.2897 11.483 24.9509 11.2092C25.6121 10.9355 26.3207 10.7947 27.0363 10.7949C27.7821 10.7937 28.5202 10.9457 29.2048 11.2416C29.8894 11.5374 30.5059 11.9708 31.0161 12.5148C32.2365 12.2732 33.407 11.8259 34.4775 11.192C34.0704 12.4544 33.2185 13.5259 32.0804 14.2072C33.1609 14.0791 34.2162 13.79 35.2111 13.3494C34.4802 14.4447 33.5587 15.3999 32.4905 16.1697Z" fill="#FBFBFB"/>
</g>
</svg>
